<svg version="1.2" width="38.2mm" height="38.2mm" viewBox="0 0 3820 3820" preserveAspectRatio="xMidYMid" fill-rule="evenodd" stroke-width="28.222" stroke-linejoin="round" xmlns="http://www.w3.org/2000/svg" xml:space="preserve">
    <defs class="ClipPathGroup">
        <clipPath id="a" clipPathUnits="userSpaceOnUse">
            <path d="M0 0h3820v3820H0z"/>
        </clipPath>
    </defs>
    <g class="SlideGroup">
        <g class="Slide" clip-path="url(#a)">
            <g class="Page">
                <g class="Group">
                    <g class="com.sun.star.drawing.ClosedBezierShape">
                        <path class="BoundingBox" fill="none" d="M1727 1625h746v2102h-746z"/>
                        <path fill="#77BC65" d="M1901 1643c-7 10-14 21-22 32-6 12-13 24-20 36-6 12-12 25-18 38s-11 26-17 39c-5 15-11 29-16 43-4 15-9 29-14 44-4 15-8 30-11 46-4 15-8 31-11 47-3 17-6 33-9 50-2 17-5 34-7 51s-4 34-6 52c-1 17-2 35-3 53s-1 36-2 54v56c1 18 1 37 2 55 1 19 2 38 4 57 1 19 79 66 81 85s13-10 29 71c6 108-19 67-16 87 4 19-67-30-63-11s8 38 12 58c4 19 9 38 13 57 6 20 11 39 16 58 6 19 11 38 17 57 6 18 12 37 18 56 7 18 14 37 20 56 8 18 15 36 22 54 8 18 15 36 23 54 8 17 16 35 24 52 9 17 17 34 25 51 9 17 18 33 27 49s18 33 27 49c10 15 20 31 29 46 10 15 20 29 30 44 10 14 20 28 31 42 10 14 21 27 31 40 11 13 22 26 32 39 12 12 23 24 34 36 11 11 22 22 33 34 11 10 22 20 34 31 11 10 23 19 35 29 11 8 23 17 34 26 12 8 23 16 35 24 12 6 23 13 35 20 12 6 23 12 35 18-1-106-2-212-3-317-9-5-17-9-25-13-9-5-17-10-25-15-8-6-17-12-25-17-9-6-17-12-25-19-8-6-16-13-24-20s-16-15-25-22l-24-24c-7-9-15-17-23-26s-15-18-23-27c-7-10-15-19-22-29s-15-20-22-31c-7-10-14-20-22-31-6-11-13-22-20-33-6-11-13-23-19-34-7-12-13-23-19-35l-18-36c-6-12-12-25-17-38-6-12-11-25-17-38-5-12-10-25-15-38s-9-27-14-40-9-26-14-40c-4-13-8-27-12-41-3-13-7-27-11-40-3-14-6-28-10-42-2-14-5-28-8-42-2-13-5-27-8-41-2-14-4-27-6-41-1-14-3-27-4-41-2-14-3-28-4-41-1-14-2-27-3-40 0-13-26-1-42-31s-4-43-4-56 46-18 46-31c1-13 2-25 3-38s2-25 4-37c1-12 3-25 4-37 2-11 4-23 7-35 2-11 5-22 7-34 3-10 6-21 9-32s7-21 10-32c4-10 7-20 11-30 4-9 8-18 12-28 4-9 9-18 13-27 5-9 9-17 14-26 5-7 10-15 15-23-51-92-103-184-155-276Z"/>
                        <path fill="none" stroke="#FFF" stroke-width="35" d="M1901 1643c-7 10-14 21-22 32-6 12-13 24-20 36-6 12-12 25-18 38s-11 26-17 39c-5 15-11 29-16 43-4 15-9 29-14 44-4 15-8 30-11 46-4 15-8 31-11 47-3 17-6 33-9 50-2 17-5 34-7 51s-4 34-6 52c-1 17-2 35-3 53s-1 36-2 54v56c1 18 1 37 2 55 1 19 2 38 4 57 1 19 79 66 81 85s13-10 29 71c6 108-19 67-16 87 4 19-67-30-63-11s8 38 12 58c4 19 9 38 13 57 6 20 11 39 16 58 6 19 11 38 17 57 6 18 12 37 18 56 7 18 14 37 20 56 8 18 15 36 22 54 8 18 15 36 23 54 8 17 16 35 24 52 9 17 17 34 25 51 9 17 18 33 27 49s18 33 27 49c10 15 20 31 29 46 10 15 20 29 30 44 10 14 20 28 31 42 10 14 21 27 31 40 11 13 22 26 32 39 12 12 23 24 34 36 11 11 22 22 33 34 11 10 22 20 34 31 11 10 23 19 35 29 11 8 23 17 34 26 12 8 23 16 35 24 12 6 23 13 35 20 12 6 23 12 35 18-1-106-2-212-3-317-9-5-17-9-25-13-9-5-17-10-25-15-8-6-17-12-25-17-9-6-17-12-25-19-8-6-16-13-24-20s-16-15-25-22l-24-24c-7-9-15-17-23-26s-15-18-23-27c-7-10-15-19-22-29s-15-20-22-31c-7-10-14-20-22-31-6-11-13-22-20-33-6-11-13-23-19-34-7-12-13-23-19-35l-18-36c-6-12-12-25-17-38-6-12-11-25-17-38-5-12-10-25-15-38s-9-27-14-40-9-26-14-40c-4-13-8-27-12-41-3-13-7-27-11-40-3-14-6-28-10-42-2-14-5-28-8-42-2-13-5-27-8-41-2-14-4-27-6-41-1-14-3-27-4-41-2-14-3-28-4-41-1-14-2-27-3-40 0-13-26-1-42-31s-4-43-4-56 46-18 46-31c1-13 2-25 3-38s2-25 4-37c1-12 3-25 4-37 2-11 4-23 7-35 2-11 5-22 7-34 3-10 6-21 9-32s7-21 10-32c4-10 7-20 11-30 4-9 8-18 12-28 4-9 9-18 13-27 5-9 9-17 14-26 5-7 10-15 15-23-51-92-103-184-155-276Z"/>
                    </g>
                    <g class="com.sun.star.drawing.CustomShape">
                        <path class="BoundingBox" fill="none" d="M951 106h1987v1987H951z"/>
                        <path fill="#77BC65" d="M1944 588c-290 0-511 221-511 511 0 289 221 510 511 510 289 0 510-221 510-510 0-290-221-511-510-511Zm-975 511c0-149 91-269 222-310-23-46-37-98-37-155 0-184 141-325 325-325 57 0 109 14 155 37 41-131 161-222 310-222 148 0 268 91 309 222 46-23 98-37 155-37 184 0 325 141 325 325 0 57-14 109-37 155 131 41 223 161 223 310 0 148-92 268-223 309 23 46 37 98 37 155 0 184-141 325-325 325-57 0-109-14-155-37-41 131-161 223-309 223-149 0-269-92-310-223-46 23-98 37-155 37-184 0-325-141-325-325 0-57 14-109 37-155-131-41-222-161-222-309Z"/>
                        <path fill="none" stroke="#FFF" stroke-width="35" d="M1944 588c-290 0-511 221-511 511 0 289 221 510 511 510 289 0 510-221 510-510 0-290-221-511-510-511Z"/>
                        <path fill="none" stroke="#FFF" stroke-width="35" d="M969 1099c0-149 91-269 222-310-23-46-37-98-37-155 0-184 141-325 325-325 57 0 109 14 155 37 41-131 161-222 310-222 148 0 268 91 309 222 46-23 98-37 155-37 184 0 325 141 325 325 0 57-14 109-37 155 131 41 223 161 223 310 0 148-92 268-223 309 23 46 37 98 37 155 0 184-141 325-325 325-57 0-109-14-155-37-41 131-161 223-309 223-149 0-269-92-310-223-46 23-98 37-155 37-184 0-325-141-325-325 0-57 14-109 37-155-131-41-222-161-222-309Z"/>
                    </g>
                    <g class="com.sun.star.drawing.ClosedBezierShape">
                        <path class="BoundingBox" fill="none" d="M1879 1895h1252v620H1879z"/>
                        <path fill="#77BC65" d="M3109 2042c11 43-6 92-49 143s-111 102-197 148-187 84-294 113-213 45-310 49c-98 3-182-7-245-29-31-18 193-262 202-262s-310 177-316 162c-11-42 6-91 49-142s110-102 197-148 188-85 294-114c106-28 213-45 311-48 97-4 182 7 244 29 63 23 102 57 114 99Z"/>
                        <path fill="none" stroke="#FFF" stroke-width="35" d="M3109 2042c11 43-6 92-49 143s-111 102-197 148-187 84-294 113-213 45-310 49c-98 3-182-7-245-29-31-18 193-262 202-262s-310 177-316 162c-11-42 6-91 49-142s110-102 197-148 188-85 294-114c106-28 213-45 311-48 97-4 182 7 244 29 63 23 102 57 114 99Z"/>
                    </g>
                    <g class="com.sun.star.drawing.ClosedBezierShape">
                        <path class="BoundingBox" fill="none" d="M694 1998h1180v733H694z"/>
                        <path fill="#77BC65" d="M721 2100c19-40 63-66 129-78s150-7 246 13 197 55 298 102 192 103 269 162c77 61 135 123 169 180 12 34-455-146-459-148s487 282 482 298c-18 39-63 66-129 77s-150 8-246-13-198-56-298-102c-99-47-192-102-269-163-77-59-135-122-169-179-33-58-41-109-23-149Z"/>
                        <path fill="none" stroke="#FFF" stroke-width="35" d="M721 2100c19-40 63-66 129-78s150-7 246 13 197 55 298 102 192 103 269 162c77 61 135 123 169 180 12 34-455-146-459-148s487 282 482 298c-18 39-63 66-129 77s-150 8-246-13-198-56-298-102c-99-47-192-102-269-163-77-59-135-122-169-179-33-58-41-109-23-149Z"/>
                    </g>
                </g>
                <g class="Group">
                    <g fill="none" class="com.sun.star.drawing.OpenBezierShape">
                        <path class="BoundingBox" d="M1 3h825v828H1z"/>
                        <path stroke="#77BC65" stroke-width="106" d="M772 56H55v720"/>
                    </g>
                    <g fill="none" class="com.sun.star.drawing.OpenBezierShape">
                        <path class="BoundingBox" d="M-1 3002h828v825H-1z"/>
                        <path stroke="#77BC65" stroke-width="106" d="M52 3056v717h720"/>
                    </g>
                    <g fill="none" class="com.sun.star.drawing.OpenBezierShape">
                        <path class="BoundingBox" d="M3001 3003h825v828h-825z"/>
                        <path stroke="#77BC65" stroke-width="106" d="M3055 3776h717v-720"/>
                    </g>
                    <g fill="none" class="com.sun.star.drawing.OpenBezierShape">
                        <path class="BoundingBox" d="M2998 2h828v825h-828z"/>
                        <path stroke="#77BC65" stroke-width="106" d="M3772 773V56h-720"/>
                    </g>
                </g>
            </g>
        </g>
    </g>
</svg>
